<?xml version="1.0" encoding="UTF-8" standalone="no"?>
<!-- Created with Inkscape (http://www.inkscape.org/) -->

<svg
   width="116"
   height="32"
   viewBox="0 0 30.691667 8.4666665"
   version="1.1"
   id="svg10463"
   inkscape:version="1.2.2 (732a01da63, 2022-12-09)"
   sodipodi:docname="logoOrSomn.svg"
   xmlns:inkscape="http://www.inkscape.org/namespaces/inkscape"
   xmlns:sodipodi="http://sodipodi.sourceforge.net/DTD/sodipodi-0.dtd"
   xmlns="http://www.w3.org/2000/svg"
   xmlns:svg="http://www.w3.org/2000/svg">
  <sodipodi:namedview
     id="namedview10465"
     pagecolor="#555555"
     bordercolor="#555555"
     borderopacity="0"
     inkscape:showpageshadow="0"
     inkscape:pageopacity="0"
     inkscape:pagecheckerboard="0"
     inkscape:deskcolor="#adadad"
     inkscape:document-units="px"
     showgrid="false"
     inkscape:zoom="7.1465517"
     inkscape:cx="58"
     inkscape:cy="15.951749"
     inkscape:window-width="1366"
     inkscape:window-height="745"
     inkscape:window-x="-8"
     inkscape:window-y="-8"
     inkscape:window-maximized="1"
     inkscape:current-layer="layer1" />
  <defs
     id="defs10460">
    <inkscape:path-effect
       effect="bspline"
       id="path-effect830"
       is_visible="true"
       lpeversion="1"
       weight="33.333333"
       steps="2"
       helper_size="0"
       apply_no_weight="true"
       apply_with_weight="true"
       only_selected="false" />
    <inkscape:path-effect
       effect="bspline"
       id="path-effect826"
       is_visible="true"
       lpeversion="1"
       weight="33.333333"
       steps="2"
       helper_size="0"
       apply_no_weight="true"
       apply_with_weight="true"
       only_selected="false" />
    <inkscape:path-effect
       effect="bspline"
       id="path-effect822"
       is_visible="true"
       lpeversion="1"
       weight="33.333333"
       steps="2"
       helper_size="0"
       apply_no_weight="true"
       apply_with_weight="true"
       only_selected="false" />
    <inkscape:path-effect
       effect="bspline"
       id="path-effect818"
       is_visible="true"
       lpeversion="1"
       weight="33.333333"
       steps="2"
       helper_size="0"
       apply_no_weight="true"
       apply_with_weight="true"
       only_selected="false" />
    <inkscape:path-effect
       effect="bspline"
       id="path-effect814"
       is_visible="true"
       lpeversion="1"
       weight="33.333333"
       steps="2"
       helper_size="0"
       apply_no_weight="true"
       apply_with_weight="true"
       only_selected="false" />
    <inkscape:path-effect
       effect="bspline"
       id="path-effect810"
       is_visible="true"
       lpeversion="1"
       weight="33.333333"
       steps="2"
       helper_size="0"
       apply_no_weight="true"
       apply_with_weight="true"
       only_selected="false" />
    <inkscape:path-effect
       effect="bspline"
       id="path-effect806"
       is_visible="true"
       lpeversion="1"
       weight="33.333333"
       steps="2"
       helper_size="0"
       apply_no_weight="true"
       apply_with_weight="true"
       only_selected="false" />
    <inkscape:path-effect
       effect="bspline"
       id="path-effect802"
       is_visible="true"
       lpeversion="1"
       weight="33.333333"
       steps="2"
       helper_size="0"
       apply_no_weight="true"
       apply_with_weight="true"
       only_selected="false" />
  </defs>
  <g
     inkscape:label="Layer 1"
     inkscape:groupmode="layer"
     id="layer1">
    <path
       style="opacity:0.673;mix-blend-mode:color;fill:none;stroke:#00ecec;stroke-width:0.396875;stroke-linecap:square;stroke-dasharray:none;stroke-opacity:1;paint-order:stroke fill markers;stroke-linejoin:miter"
       d="M 7.6569272,3.1092023 C 7.2772607,3.1417451 6.8951932,3.1744938 6.4797603,3.2944044 6.0643274,3.414315 5.6167622,3.6217232 5.3377542,3.7858033 5.0587463,3.9498833 4.949584,4.0699619 4.8839783,4.2019842 4.8183726,4.3340065 4.7965401,4.4759173 4.8737296,4.7766152 4.9509192,5.0773132 5.1255788,5.5357946 5.5081713,5.7250865 5.8907638,5.9143783 6.48024,5.8379647 6.9221329,5.7614598 7.3640258,5.684955 7.6587637,5.6085414 8.1223141,5.4120228 8.5858646,5.2155043 9.2190057,4.8989337 9.584353,4.7025638 9.9497004,4.5061939 10.047946,4.4297803 10.134829,4.2778895 10.221711,4.1259987 10.298125,3.8967575 10.336596,3.7171691 10.375068,3.5375807 10.375068,3.4065861 10.228855,3.1556455 10.082641,2.9047049 9.7879029,2.5335533 9.4168149,2.3628072 9.0457269,2.192061 8.5981617,2.2248097 8.2923056,2.257444 7.9864494,2.2900784 7.8227059,2.3228271 7.7024834,2.3500716 7.5822609,2.377316 7.5058474,2.3991485 7.4276867,2.4214801"
       id="path800"
       inkscape:path-effect="#path-effect802"
       inkscape:original-d="M 7.6569272,3.1092023 C 7.2775052,3.1445973 6.8954376,3.1773453 6.5107239,3.2074483 6.0658046,3.4175025 5.6182393,3.6249107 5.1680283,3.8296731 5.0615118,3.9523974 4.9523494,4.0724759 4.8405415,4.1899086 4.8213539,4.3344652 4.7995223,4.4763761 4.7750441,4.6156411 4.9523494,5.0767683 5.1270091,5.5352497 5.2990229,5.9910855 5.8911448,5.9173176 6.480621,5.840904 7.0674512,5.7618447 7.3648352,5.688077 7.6595731,5.6116635 7.9516654,5.5326039 8.5874522,5.2186795 9.2205933,4.9021089 9.8510878,4.5828926 9.9519798,4.5091246 10.050226,4.4327111 10.145826,4.3536518 c 0.07906,-0.2265947 0.155475,-0.4558356 0.229242,-0.6877222 0.0027,-0.1283489 0.0027,-0.2593435 0,-0.392984 C 10.082975,2.9044398 9.7882368,2.5332882 9.490853,2.1594908 9.0459336,2.1948853 8.5983684,2.227634 8.1481574,2.2577368 7.98706,2.2931313 7.8233165,2.32588 7.6569272,2.3559828 7.5831595,2.3804611 7.506746,2.4022935 7.4276867,2.4214801" />
    <path
       style="opacity:0.673;mix-blend-mode:color;fill:none;stroke:#00ecec;stroke-width:0.396875;stroke-linecap:square;stroke-dasharray:none;stroke-opacity:1;paint-order:stroke fill markers;stroke-linejoin:miter"
       d="M 7.3949379,4.0409048 C 7.5923355,4.7268603 7.7888276,5.4096691 7.9033005,5.8328984 8.0177734,6.2561277 8.0505221,6.4198709 8.078146,6.5291036 8.10577,6.6383363 8.1276022,6.692917 8.1481572,6.7443048"
       id="path804"
       inkscape:path-effect="#path-effect806"
       inkscape:original-d="m 7.3949379,4.0409048 c 0.1991378,0.6854547 0.3956298,1.3682635 0.5894763,2.0484266 0.035394,0.1663893 0.068143,0.3301325 0.098246,0.4912302 0.024479,0.057227 0.046311,0.1118078 0.065497,0.1637432" />
    <path
       style="opacity:0.673;mix-blend-mode:color;fill:none;stroke:#00ecec;stroke-width:0.396875;stroke-linecap:square;stroke-dasharray:none;stroke-opacity:1;paint-order:stroke fill markers;stroke-linejoin:miter"
       d="m 12.078001,3.7969243 c -0.186018,0.2954397 -0.371595,0.590178 -0.502597,0.89643 -0.131003,0.3062519 -0.207416,0.6228219 -0.245394,0.846979 -0.03798,0.2241572 -0.03798,0.3551519 -0.01513,0.4536012 0.02285,0.098449 0.06652,0.1639494 0.191685,0.1512318 0.125168,-0.012718 0.332578,-0.100048 0.496134,-0.1764401 0.163556,-0.076392 0.283635,-0.1418899 0.414535,-0.2182778 0.1309,-0.076388 0.272811,-0.1637176 0.523719,-0.3437627 0.250908,-0.1800451 0.611144,-0.4529506 0.818126,-0.6325577 0.206981,-0.179607 0.261562,-0.2669357 0.294486,-0.4515979 0.03292,-0.1846623 0.04384,-0.4684844 0.04414,-0.6429145 2.99e-4,-0.1744301 -0.01062,-0.2399236 -0.02645,-0.2944192 -0.01583,-0.054496 -0.03766,-0.098159 -0.06109,-0.1449994"
       id="path808"
       inkscape:path-effect="#path-effect810"
       inkscape:original-d="m 12.078001,3.7969243 c -0.18293,0.297384 -0.368507,0.5921221 -0.556729,0.8842142 -0.07377,0.3192163 -0.150181,0.6357868 -0.22924,0.9497115 0.0026,0.1336405 0.0026,0.2646352 0,0.392984 0.04631,0.068143 0.08998,0.1336406 0.130994,0.1964921 0.210054,-0.084684 0.417464,-0.1720139 0.622226,-0.2619894 0.122724,-0.062851 0.242803,-0.1283488 0.360235,-0.196492 0.144557,-0.084684 0.286468,-0.1720138 0.425733,-0.2619894 0.362882,-0.2702597 0.723117,-0.5431655 1.080706,-0.8187168 0.05723,-0.084684 0.111809,-0.1720139 0.163745,-0.2619894 0.01356,-0.2811759 0.02448,-0.5649978 0.03275,-0.8514654 -0.0083,-0.062851 -0.01919,-0.1283488 -0.03275,-0.196492 -0.01919,-0.041019 -0.04102,-0.084684 -0.0655,-0.1309947" />
    <path
       style="opacity:0.673;mix-blend-mode:color;fill:none;stroke:#00ecec;stroke-width:0.396875;stroke-linecap:square;stroke-dasharray:none;stroke-opacity:1;paint-order:stroke fill markers;stroke-linejoin:miter"
       d="M 15.614858,3.141951 C 15.472635,4.1582068 15.330724,5.1722307 15.189126,6.1840228"
       id="path812"
       inkscape:path-effect="#path-effect814"
       inkscape:original-d="M 15.614858,3.141951 C 15.475593,4.1586208 15.333682,5.1726446 15.189126,6.1840228" />
    <path
       style="opacity:0.673;mix-blend-mode:color;fill:none;stroke:#00ecec;stroke-width:0.396875;stroke-linecap:square;stroke-dasharray:none;stroke-opacity:1;paint-order:stroke fill markers;stroke-linejoin:miter"
       d="m 19.937683,3.0764536 c -0.653106,0.1632766 -1.308079,0.3270199 -1.6365,0.4486545 -0.32842,0.1216346 -0.32842,0.1980485 -0.344967,0.3397232 -0.01655,0.1416747 -0.0493,0.3490829 -0.07107,0.5129337 -0.02177,0.1638508 -0.03269,0.2839269 -0.08742,0.5073661 -0.05473,0.2234393 -0.152974,0.550926 -0.207479,0.7476434 -0.05451,0.1967173 -0.06542,0.2622105 -0.08188,0.3274291 -0.01646,0.065219 -0.03829,0.130715 -0.04895,0.2021995 -0.01065,0.071485 -0.01065,0.1478988 -0.01065,0.2024796 0,0.054581 0,0.08733 0.06093,0.085763 0.06093,-0.00157 0.181013,-0.034316 0.339648,-0.055973 0.158635,-0.021657 0.355127,-0.032574 0.682626,-0.048939 0.327498,-0.016365 0.785979,-0.038197 1.11899,-0.049054 0.333011,-0.010856 0.540419,-0.010856 0.665955,-0.010856 0.125537,0 0.169197,0 0.196489,0 0.02729,0 0.03821,0 0.04235,-0.015644 0.0041,-0.015644 0.0041,-0.049577 0.0041,-0.086157"
       id="path816"
       inkscape:path-effect="#path-effect818"
       inkscape:original-d="m 19.937683,3.0764536 c -0.652328,0.1663892 -1.307301,0.3301325 -1.96492,0.4912301 0.0026,0.079059 0.0026,0.1554729 0,0.2292406 -0.0301,0.2100543 -0.06285,0.4174625 -0.09825,0.6222248 -0.0083,0.1227243 -0.01919,0.2428028 -0.03275,0.3602355 -0.0956,0.3301325 -0.193846,0.6576192 -0.294738,0.9824601 -0.0083,0.068143 -0.01919,0.1336405 -0.03275,0.196492 -0.01919,0.068143 -0.04102,0.1336405 -0.0655,0.196492 0.0026,0.079059 0.0026,0.1554732 0,0.2292408 0.0026,0.035394 0.0026,0.068143 0,0.098246 0.122724,-0.030103 0.242803,-0.062851 0.360235,-0.098246 0.199138,-0.00827 0.39563,-0.019188 0.589477,-0.032749 0.461127,-0.019188 0.919608,-0.041019 1.375444,-0.065497 0.210054,0.00265 0.417462,0.00265 0.622225,0 0.04631,0.00265 0.08997,0.00265 0.130994,0 0.01356,0.00265 0.02448,0.00265 0.03275,0 0.0026,-0.031288 0.0026,-0.065221 0,-0.1018006" />
    <path
       style="opacity:0.673;mix-blend-mode:color;fill:none;stroke:#00ecec;stroke-width:0.396875;stroke-linecap:square;stroke-dasharray:none;stroke-opacity:1;paint-order:stroke fill markers;stroke-linejoin:miter"
       d="M 18.52949,5.1068713 C 19.186051,4.8880177 19.841025,4.669693 20.49441,4.4518979"
       id="path820"
       inkscape:path-effect="#path-effect822"
       inkscape:original-d="M 18.52949,5.1068713 C 19.187109,4.8911925 19.842083,4.6728681 20.49441,4.4518979" />
    <path
       style="opacity:0.673;mix-blend-mode:color;fill:none;stroke:#00ecec;stroke-width:0.396875;stroke-linecap:square;stroke-dasharray:none;stroke-opacity:1;paint-order:stroke fill markers;stroke-linejoin:miter"
       d="m 23.441791,2.6753857 c -0.164115,0.9326884 -0.327859,1.8632622 -0.431568,2.448024 -0.103709,0.5847617 -0.147374,0.8237328 -0.190657,1.0606131"
       id="path824"
       inkscape:path-effect="#path-effect826"
       inkscape:original-d="m 23.441791,2.6753857 c -0.161097,0.9332195 -0.324841,1.8637932 -0.49123,2.7917208 -0.04102,0.2416181 -0.08468,0.48059 -0.130995,0.7169163" />
    <path
       style="opacity:0.673;mix-blend-mode:color;fill:none;stroke:#00ecec;stroke-width:0.396875;stroke-linecap:square;stroke-dasharray:none;stroke-opacity:1;paint-order:stroke fill markers;stroke-linejoin:miter"
       d="M 22.434777,2.6753857 C 23.55815,2.3500915 24.67979,2.0252992 25.799695,1.7010094"
       id="path828"
       inkscape:path-effect="#path-effect830"
       inkscape:original-d="M 22.434777,2.6753857 C 23.559062,2.3532395 24.680702,2.0284473 25.799695,1.7010094" />
  </g>
</svg>
